HIERARCHY
ROOT hip
{
	OFFSET 0.000000 0.000000 0.000000 
	CHANNELS 6 Xposition Yposition Zposition Xrotation Zrotation Yrotation
	JOINT abdomen
	{
		OFFSET 0.000000 3.402643 0.000000 
		CHANNELS 3 Xrotation Zrotation Yrotation
		JOINT chest
		{
			OFFSET 0.000000 8.438565 -0.680529 
			CHANNELS 3 Xrotation Zrotation Yrotation
			JOINT neck
			{
				OFFSET 0.000000 10.207942 -0.272212 
				CHANNELS 3 Xrotation Zrotation Yrotation
				JOINT head
				{
					OFFSET 0.000000 3.130431 0.000000 
					CHANNELS 3 Xrotation Zrotation Yrotation
					End Site
					{
						OFFSET 0.000000 3.130435 0.000000 
					}
				}
			}
			JOINT lCollar
			{
				OFFSET 3.470700 6.669187 -0.816635 
				CHANNELS 3 Yrotation Zrotation Xrotation
				JOINT lShldr
				{
					OFFSET 3.198488 0.000000 0.000000 
					CHANNELS 3 Zrotation Yrotation Xrotation
					JOINT lForeArm
					{
						OFFSET 10.139888 0.000000 0.000000 
						CHANNELS 3 Yrotation Zrotation Xrotation
						JOINT lHand
						{
							OFFSET 8.370511 0.000000 0.000000 
							CHANNELS 3 Zrotation Yrotation Xrotation
							End Site
							{
								OFFSET 4.083176 0.000000 0.000000 
							}
						}
					}
				}
			}
			JOINT rCollar
			{
				OFFSET -3.470700 6.669187 -0.816635 
				CHANNELS 3 Yrotation Zrotation Xrotation
				JOINT rShldr
				{
					OFFSET -3.198488 0.000000 0.000000 
					CHANNELS 3 Zrotation Yrotation Xrotation
					JOINT rForeArm
					{
						OFFSET -10.139888 0.000000 0.000000 
						CHANNELS 3 Yrotation Zrotation Xrotation
						JOINT rHand
						{
							OFFSET -8.370511 0.000000 0.000000 
							CHANNELS 3 Zrotation Yrotation Xrotation
							End Site
							{
								OFFSET -4.083176 0.000000 0.000000 
							}
						}
					}
				}
			}
		}
	}
	JOINT lThigh
	{
		OFFSET 5.308129 -1.633274 1.361059 
		CHANNELS 3 Xrotation Zrotation Yrotation
		JOINT lShin
		{
			OFFSET -2.041588 -20.007561 0.000000 
			CHANNELS 3 Xrotation Zrotation Yrotation
			JOINT lFoot
			{
				OFFSET 0.000000 -19.190928 -1.224953 
				CHANNELS 3 Xrotation Yrotation Zrotation
				End Site
				{
					OFFSET 0.000000 -2.449906 4.627600 
				}
			}
		}
	}
	JOINT rThigh
	{
		OFFSET -5.308129 -1.633274 1.361059 
		CHANNELS 3 Xrotation Zrotation Yrotation
		JOINT rShin
		{
			OFFSET 2.041588 -20.007561 0.000000 
			CHANNELS 3 Xrotation Zrotation Yrotation
			JOINT rFoot
			{
				OFFSET 0.000000 -19.190928 -1.224953 
				CHANNELS 3 Xrotation Yrotation Zrotation
				End Site
				{
					OFFSET 0.000000 -2.449906 4.627600 
				}
			}
		}
	}
}
MOTION
Frames: 18
Frame Time: 0.033333
1.318133 33.484882 -8.001066 3.164063 -4.404256 -38.868195 33.193359 -8.701172 3.074694 -13.007813 -9.423829 6.289063 -28.789063 13.652344 8.300781 10.937499 -3.310547 11.083985 7.080078 8.281250 0.341797 -62.900394 -66.035156 -18.505861 -59.335938 -3.369141 -43.817780 3.925781 5.458984 0.176710 -15.732422 -5.976563 0.117188 -21.162107 102.382813 -50.986553 60.468750 1.503906 0.585681 -3.212891 -4.941407 0.029297 -68.475349 31.081804 -17.313200 60.310299 0.603953 -3.767772 8.361098 -17.307896 -5.180469 -36.104778 -20.896341 16.196884 92.624619 -3.183580 3.485109 -3.771798 56.121819 9.874897 
2.030742 33.097023 -5.869307 2.978516 -5.273438 -39.913006 36.132813 -10.839844 -0.468751 -11.767578 -7.666016 3.496093 -32.324219 13.408204 11.242497 9.716797 -1.367187 14.531017 5.605469 10.556642 0.515789 -68.017578 -78.496094 8.017580 -40.703121 -3.320313 -41.542404 -5.263672 10.898437 -1.416016 -15.605470 -4.316406 0.048828 91.904297 74.179688 58.251583 64.697266 2.246094 -14.892960 -6.816406 -6.640625 0.516449 -70.580849 30.555599 -16.687338 67.889854 0.949869 -3.860956 6.826411 -17.738289 -5.398973 -34.368580 -24.763380 16.323309 90.845894 -3.554521 3.623847 1.856900 57.726780 5.274031 
2.759563 32.905487 -4.091461 4.218750 -5.458984 -40.801712 38.671875 -12.333984 -3.586070 -10.185546 -6.093750 1.229432 -36.875004 12.128907 13.447266 7.617188 1.269531 17.041014 4.501953 12.997879 0.495870 41.201176 -95.605469 -82.890572 -32.509766 -3.466797 -47.684956 -2.392578 12.773438 -1.064453 -15.458984 -2.480469 0.019954 72.509766 63.251949 36.131763 71.513672 2.382812 -14.570716 -12.382812 -9.863281 1.599890 -73.611679 30.203074 -16.235699 74.218826 1.452860 -3.760383 3.963830 -18.066622 -6.181800 -33.797997 -27.724241 14.710448 90.195457 -3.017749 3.271575 4.200078 52.882801 3.482324 
3.496202 33.006855 -2.626001 6.494140 -4.755859 -42.382813 40.820313 -12.832032 -6.142577 -9.482422 -5.390625 -0.684511 -40.507813 11.220703 15.156250 5.322266 3.730469 18.848097 3.896484 14.755858 0.654297 16.240250 -103.125000 -56.523182 -29.599607 -3.417969 -44.188873 0.136719 9.150390 -0.322266 -14.599609 0.126953 -0.175781 68.916016 51.591793 25.498045 77.656250 2.041015 -9.951521 -14.814453 -10.175781 2.158204 -76.441513 30.516933 -15.571880 78.087021 1.515597 -4.008377 1.125160 -17.230736 -6.900833 -34.205307 -29.490179 10.803128 90.009171 -3.027360 3.277842 3.773124 41.324512 4.514302 
4.226774 33.368465 -1.374357 9.140625 -3.525390 -44.492786 42.412106 -13.261719 -7.988281 -9.482422 -5.917970 -2.100616 -42.333988 11.562498 16.210938 2.851563 5.830078 19.942398 3.837891 15.644529 0.810547 19.824242 -106.396484 -56.259365 -32.929688 -3.310547 -42.558594 1.601563 8.632813 -0.027829 -12.998047 2.636719 -0.146484 67.568367 41.210938 19.000576 83.671875 2.099609 -8.935546 -14.570312 -7.167968 1.444096 -78.801018 31.063099 -14.696084 80.909332 1.612818 -3.705822 -0.993028 -16.518593 -7.562348 -34.616646 -30.584299 6.004972 88.951668 -2.861151 3.239316 0.688071 28.400026 6.838709 
4.924801 33.903538 -0.288357 11.416016 -1.943359 -46.933926 43.828125 -13.652344 -8.937852 -9.843750 -7.148438 -2.628168 -43.417973 12.431641 16.757813 1.074219 6.875001 20.898438 4.023438 15.654299 0.761719 30.361338 -109.160156 -66.425240 -39.091797 -3.154297 -34.579544 2.119140 9.687500 -0.058594 -11.718749 4.804688 -0.293787 65.996094 33.066402 17.339312 88.251953 1.796875 -5.761718 -16.406250 -4.707032 1.151542 -80.394684 31.600403 -13.717697 82.470673 1.602682 -3.777448 -1.779831 -14.955678 -7.664401 -34.238670 -31.260006 2.078167 85.613503 -2.660071 3.330240 -3.560494 19.368320 8.263210 
5.559722 34.540440 0.642269 13.710938 -0.175781 -49.580082 44.560547 -14.198057 -8.849570 -10.371094 -8.378906 -2.286579 -44.160156 12.949219 17.246094 -0.166016 7.568359 21.523439 3.710938 14.931641 0.690843 45.058594 -111.503906 -79.491501 -46.445313 -3.115234 -35.029297 4.501953 8.964725 0.323774 -10.800780 6.074219 -0.479549 64.042969 27.148438 18.808594 90.986328 1.728516 -3.476857 -19.277344 -2.177734 0.448849 -81.454918 31.951048 -13.139583 83.341866 1.773484 -3.830059 -1.799233 -12.587050 -7.836514 -34.285973 -31.639612 -0.491812 80.717621 -1.962559 3.258195 -6.822479 15.887631 9.031732 
6.087558 35.217121 1.405386 15.986327 1.572266 -52.031250 44.931641 -14.677733 -8.029818 -11.074218 -9.082031 -1.427323 -44.892574 13.115234 17.775654 -1.054688 7.382812 22.001953 3.271484 14.033203 0.546875 57.607426 -114.375000 -90.448349 -51.074219 -3.027344 -33.163548 5.742188 7.363281 0.430939 -10.087891 6.591796 -0.460105 62.998043 22.822266 21.611328 91.328125 1.718750 -2.949512 -20.107424 -0.048828 -0.097656 -82.703918 31.960575 -13.574114 83.522484 1.411784 -3.802115 -1.795807 -9.461086 -7.529094 -34.361702 -31.031828 -2.141251 75.285675 -1.591491 3.323221 -7.950214 15.157594 9.294098 
6.483932 35.866741 2.007178 18.281252 2.988281 -54.315899 44.775391 -15.185548 -7.041016 -11.953125 -9.423828 -0.206677 -45.097656 13.291017 18.137011 -1.757813 7.021484 22.314453 2.958984 13.134766 0.507812 -112.509766 -61.689449 80.059761 -53.447266 -3.134766 -32.157669 8.408203 6.250000 0.615234 -9.404296 6.210938 -0.420978 62.988285 19.638674 24.720081 90.273438 1.767578 -2.949219 -20.087893 1.953125 -0.927734 -83.973083 31.794588 -14.167755 83.692818 1.773280 -3.853448 -1.838598 -6.968894 -7.474933 -35.434765 -30.161747 -3.385844 71.062172 -1.249938 3.433679 -6.021819 15.654809 8.831953 
6.741142 36.415337 2.438663 20.214846 4.042969 -56.063763 44.082031 -15.371093 -5.820312 -12.832032 -9.423827 1.015625 -44.941406 13.281250 18.488571 -2.460938 6.845703 22.626953 2.470703 12.246094 0.458968 -104.775391 -57.451172 71.915596 -55.234375 -3.095703 -34.433067 10.937500 6.318359 1.006934 -9.072266 5.654297 -0.372056 63.964844 17.763672 27.717825 88.300781 1.650391 -1.367188 -19.775391 3.906250 -1.415349 -84.887787 31.981716 -15.528760 83.360764 1.378131 -3.977489 -1.775743 -4.740894 -7.172436 -37.085728 -28.814814 -4.336760 68.442772 -1.083201 3.073461 -2.785739 15.956553 7.816353 
6.878671 36.811714 2.734717 21.972656 4.746094 -57.469894 43.203125 -15.546875 -4.611992 -13.349609 -9.072267 2.059007 -44.775391 13.105468 18.654560 -2.636719 6.484375 22.784307 1.972656 11.708984 0.417940 -99.169922 -54.218750 66.554581 -56.337894 -3.320313 -36.796875 12.490233 5.234375 0.898437 -9.072266 5.136719 -0.450093 65.107422 16.874998 30.273441 86.542969 1.523437 -1.377213 -17.851563 4.423828 -1.473855 -85.961281 32.333191 -16.805389 83.159630 1.660762 -4.111427 -2.552299 -2.788538 -7.202891 -39.285248 -27.527874 -4.907208 67.903320 -1.064195 3.401568 0.897904 16.118643 6.875873 
6.952626 37.035442 2.937687 23.017576 5.087891 -58.544926 42.480469 -15.361328 -3.505860 -13.349609 -8.720703 2.937973 -44.960938 12.929688 18.830311 -2.626953 6.132813 22.960026 2.148438 11.533202 0.390625 -95.097656 -52.382813 63.273514 -57.744141 -3.251953 -37.538509 14.003907 6.865235 1.329294 -9.267578 4.931641 -0.293808 65.556641 17.187500 32.978516 84.833984 1.708984 -2.949219 -16.826172 5.283204 -1.591797 -86.408730 32.674801 -17.743868 83.185753 1.768615 -3.828212 -2.557667 -1.914239 -7.218209 -41.714634 -26.813480 -4.826572 68.794495 -1.074220 3.084042 4.343250 17.567657 5.757983 
7.013867 37.103683 3.063668 23.193359 5.087891 -59.248047 42.460938 -15.146484 -2.587891 -13.173827 -8.369141 3.650922 -45.332035 12.753907 19.003906 -2.626953 5.605469 22.959936 2.656250 11.542969 0.458984 -93.330078 -52.177734 61.906349 -58.378902 -3.193359 -37.968204 13.271484 6.562500 1.202288 -9.619141 4.765625 -0.292969 65.976563 18.417969 35.361328 83.300781 1.757813 -4.189753 -17.031250 6.113281 -1.766537 -86.028114 32.831116 -18.135128 83.359085 1.583066 -3.821166 -2.978911 -1.503820 -7.447670 -44.057533 -26.861792 -4.570374 70.705093 -1.249222 3.574103 5.094692 21.000795 5.673361 
7.089805 37.065186 3.102512 22.841797 5.087891 -59.764755 42.802734 -15.048828 -2.043551 -12.822267 -8.193359 4.003906 -45.517578 12.744141 19.179688 -2.441406 5.087891 23.144533 3.505859 12.089845 0.456939 -92.617188 -53.652344 61.835938 -58.759762 -3.242188 -36.405701 11.630859 5.957031 0.957031 -9.970702 4.414062 -0.323017 66.503906 20.224609 36.777340 82.304688 1.875000 -5.781570 -18.525393 7.324219 -2.363281 -85.184830 33.025833 -18.098162 83.342690 1.753865 -3.827703 -3.886239 -1.557348 -7.102825 -46.492188 -27.196135 -3.948807 73.162689 -1.416123 3.553780 2.224035 27.634064 6.307739 
7.178692 36.968605 3.023890 21.972656 4.921875 -60.282360 43.671879 -14.931643 -1.672438 -12.822267 -8.017578 4.355469 -45.712891 12.392578 19.482424 -2.441406 4.736328 23.320311 4.501953 12.822100 0.515431 -92.070313 -56.689453 60.898438 -59.785156 -3.027344 -33.466801 7.255859 1.914062 0.156250 -10.332031 4.248047 -0.332031 67.705078 23.125002 36.445313 81.259766 2.011719 -9.335938 -19.501953 10.488281 -3.417969 -83.719177 33.191532 -17.762928 83.000366 1.763460 -3.825390 -4.577994 -2.000379 -7.518094 -49.322056 -27.390078 -3.834960 75.452019 -1.581864 3.326960 -2.541058 31.559511 8.655626 
7.263379 36.838306 2.790592 20.742188 4.746094 -61.005863 44.541016 -14.785157 -1.467335 -12.646483 -7.666016 4.539712 -45.937500 12.031250 20.187584 -2.431641 4.560580 23.848282 5.322266 13.388672 0.603208 -90.341797 -60.478519 55.751957 -63.066410 -2.949219 -29.287109 -1.562500 -3.330078 -0.049394 -10.517579 3.701171 -0.234375 69.453117 26.806643 33.759766 81.650391 2.431641 -15.673829 -18.984375 13.613281 -4.275044 -82.003860 33.533798 -17.241793 82.478882 1.407205 -3.750410 -4.828476 -2.030644 -7.351103 -52.456375 -27.194595 -4.439705 77.733376 -1.767558 3.289137 -7.590100 30.540142 11.162540 
7.335585 36.710693 2.406934 19.335938 4.746094 -61.688644 45.576172 -14.462890 -1.242673 -12.470703 -7.314454 4.539773 -45.810547 11.142578 20.871027 -2.607422 4.199219 24.189453 6.318359 13.789063 0.700797 -83.798828 -64.072266 46.934582 -69.873047 -2.929688 -26.640625 -9.013672 -6.523438 1.073109 -10.869142 3.183594 -0.312500 71.865234 31.748045 30.405529 82.539063 2.626953 -20.781700 -17.441406 18.085938 -5.205079 -80.496994 33.730301 -16.636738 81.601860 1.602739 -3.751472 -5.134673 -2.279374 -7.290617 -55.823410 -27.036982 -5.896911 79.124756 -1.933377 3.544333 -11.306937 28.161177 12.618123 
7.335469 36.595676 1.850985 17.753906 4.746094 -62.391769 46.249996 -13.789063 -0.957031 -12.119141 -6.787109 4.550781 -45.712891 10.078124 21.884766 -2.421875 3.681641 24.551409 7.177734 13.994140 0.634766 -72.412109 -65.126953 34.434502 -79.511719 -2.724609 -24.667969 -10.332031 -8.320313 1.660156 -11.064453 2.460938 -0.264091 74.697266 37.490231 28.603514 85.527344 2.685547 -23.886721 -17.783203 19.863283 -5.810547 -77.932930 33.885376 -15.894808 80.350342 1.602957 -4.028429 -4.972836 -1.475655 -7.501512 -58.578846 -26.481544 -6.574695 78.956902 -1.767244 3.497019 -12.256629 29.818758 13.590240 
